<?xml version="1.0" encoding="UTF-8" standalone="no"?>
<svg
   xmlns:dc="http://purl.org/dc/elements/1.1/"
   xmlns:cc="http://creativecommons.org/ns#"
   xmlns:rdf="http://www.w3.org/1999/02/22-rdf-syntax-ns#"
   xmlns:svg="http://www.w3.org/2000/svg"
   xmlns="http://www.w3.org/2000/svg"
   xmlns:xlink="http://www.w3.org/1999/xlink"
   id="SVGRoot"
   version="1.1"
   viewBox="0 0 1080 1080"
   height="1080px"
   width="1080px">
  <defs
     id="defs831">
    <linearGradient
       id="linearGradient2797">
      <stop
         id="stop2793"
         offset="0"
         style="stop-color:#050000;stop-opacity:1" />
      <stop
         id="stop2795"
         offset="1"
         style="stop-color:#ffffff;stop-opacity:0;" />
    </linearGradient>
    <linearGradient
       gradientUnits="userSpaceOnUse"
       y2="1240.9419"
       x2="863.91797"
       y1="1312.0862"
       x1="28.492416"
       id="linearGradient2799-3"
       xlink:href="#linearGradient2797"
       gradientTransform="matrix(-1.0083571,0,0,-0.99966919,1078.7077,1114.3763)" />
    <linearGradient
       y2="1240.9419"
       x2="863.91797"
       y1="1312.0862"
       x1="28.492416"
       gradientTransform="matrix(1.0083571,0,0,0.99966919,-1.9192899,0.24013)"
       gradientUnits="userSpaceOnUse"
       id="linearGradient2853"
       xlink:href="#linearGradient2797" />
  </defs>
  <metadata
     id="metadata834">
    <rdf:RDF>
      <cc:Work
         rdf:about="">
        <dc:format>image/svg+xml</dc:format>
        <dc:type
           rdf:resource="http://purl.org/dc/dcmitype/StillImage" />
        <dc:title></dc:title>
      </cc:Work>
    </rdf:RDF>
  </metadata>
  <g
     id="layer1">
    <path
       id="path1862"
       d="M 1068.8053,538.18104 A 527.76305,527.76305 0 0 1 541.04224,1065.9441 527.76305,527.76305 0 0 1 13.279208,538.18104 527.76305,527.76305 0 0 1 541.04224,10.41799 527.76305,527.76305 0 0 1 1068.8053,538.18104 Z"
       style="opacity:1;fill:#1a1a1a;fill-opacity:1;stroke:#000000;stroke-width:0;stroke-linecap:round;stroke-linejoin:miter;stroke-miterlimit:4;stroke-dasharray:none;stroke-dashoffset:0;stroke-opacity:1;paint-order:normal" />
    <path
       id="path1839"
       d="m 232.92967,724.12491 c 1.7977,-1.55408 86.7949,-77.8931 188.88266,-169.6422 l 185.6141,-166.81663 117.29171,-0.0562 117.29168,-0.0562 -27.06913,24.66338 c -14.88807,13.56483 -98.73381,89.92907 -186.32392,169.69825 L 469.36197,726.95039 H 349.51155 229.66112 Z"
       style="opacity:1;fill:#ececec;fill-opacity:1;stroke:#000000;stroke-width:0;stroke-linecap:round;stroke-linejoin:miter;stroke-miterlimit:4;stroke-dasharray:none;stroke-dashoffset:0;stroke-opacity:1;paint-order:normal" />
    <g
       transform="translate(2)"
       id="g2774">
      <path
         style="opacity:1;fill:#ffffff;fill-opacity:1;stroke:#000000;stroke-width:0;stroke-linecap:round;stroke-linejoin:miter;stroke-miterlimit:4;stroke-dasharray:none;stroke-dashoffset:0;stroke-opacity:1;paint-order:normal"
         d="M 195.21392,278.39266 35.544638,387.55368 H 438.77723 V 278.39266 Z"
         id="path2764" />
      <path
         id="path2766"
         d="M 680.34054,278.39266 840.00982,387.55368 H 436.77723 V 278.39266 Z"
         style="opacity:1;fill:#ffffff;fill-opacity:1;stroke:#000000;stroke-width:0;stroke-linecap:round;stroke-linejoin:miter;stroke-miterlimit:4;stroke-dasharray:none;stroke-dashoffset:0;stroke-opacity:1;paint-order:normal" />
    </g>
    <g
       transform="matrix(1,0,0,-1,194.11648,1114.5041)"
       id="g2791">
      <path
         id="path2787"
         d="M 195.21392,278.39266 35.544638,387.55368 H 438.77723 V 278.39266 Z"
         style="opacity:1;fill:#ffffff;fill-opacity:1;stroke:#000000;stroke-width:0;stroke-linecap:round;stroke-linejoin:miter;stroke-miterlimit:4;stroke-dasharray:none;stroke-dashoffset:0;stroke-opacity:1;paint-order:normal" />
      <path
         style="opacity:1;fill:#ffffff;fill-opacity:1;stroke:#000000;stroke-width:0;stroke-linecap:round;stroke-linejoin:miter;stroke-miterlimit:4;stroke-dasharray:none;stroke-dashoffset:0;stroke-opacity:1;paint-order:normal"
         d="M 680.34054,278.39266 840.00982,387.55368 H 436.77723 V 278.39266 Z"
         id="path2789" />
    </g>
    <path
       style="opacity:1;fill:url(#linearGradient2799-3);fill-opacity:1;stroke:#000000;stroke-width:0;stroke-linecap:round;stroke-linejoin:miter;stroke-miterlimit:4;stroke-dasharray:none;stroke-dashoffset:0;stroke-opacity:1;paint-order:normal"
       d="m 843.83143,390.49105 c -1.81273,1.55349 -87.52027,77.86732 -190.46119,169.58608 l -187.1653,166.76142 -118.27193,0.0559 -118.27189,0.0559 27.29535,-24.65524 C 271.96895,688.73487 356.5154,612.39582 444.83751,532.65312 L 605.42322,387.66608 h 120.85203 120.85204 z"
       id="path2674-4" />
    <path
       id="path2851"
       d="m 232.95698,724.12538 c 1.81273,-1.55349 87.52027,-77.86732 190.46119,-169.58608 l 187.1653,-166.76142 118.27193,-0.0559 118.27189,-0.0559 -27.29535,24.65524 C 804.81946,425.88156 720.27301,502.22061 631.9509,581.96331 L 471.36519,726.95035 H 350.51316 229.66112 Z"
       style="opacity:1;fill:url(#linearGradient2853);fill-opacity:1;stroke:#000000;stroke-width:0;stroke-linecap:round;stroke-linejoin:miter;stroke-miterlimit:4;stroke-dasharray:none;stroke-dashoffset:0;stroke-opacity:1;paint-order:normal" />
  </g>
</svg>
