<svg xmlns="http://www.w3.org/2000/svg" xmlns:xlink="http://www.w3.org/1999/xlink" width="1896.927" height="311.151" viewBox="0 0 1896.927 311.151">
  <defs>
    <linearGradient id="linear-gradient" x1="-0.283" y1="4.637" x2="2.257" y2="4.246" gradientUnits="objectBoundingBox">
      <stop offset="0" stop-color="#050000"/>
      <stop offset="1" stop-color="#fff" stop-opacity="0"/>
    </linearGradient>
  </defs>
  <g id="Group_2" data-name="Group 2" transform="translate(4977.209 3820.725)">
    <path id="path1839" d="M123.416,647.115c.966-.832,46.62-41.724,101.455-90.871l99.7-89.357,63-.03,63-.03-14.54,13.211c-8,7.266-53.033,48.172-100.08,90.9l-85.54,77.69H121.661Z" transform="translate(-4995.678 -4228.918)" fill="#ececec"/>
    <path id="path2674-4" d="M448.814,468.34c-.966.832-46.62,41.724-101.455,90.87l-99.7,89.356-63,.03-63,.03,14.54-13.211c8-7.266,53.033-48.171,100.08-90.9l85.54-77.689h128.75Z" transform="translate(-4995.678 -4228.918)" fill="url(#linear-gradient)"/>
    <path id="path2764" d="M104.855,149.533,19.092,208.167H235.68V149.533Z" transform="translate(-4996.301 -3970.259)" fill="#fff"/>
    <path id="path2766" d="M365.432,149.533l85.763,58.634H234.606V149.533Z" transform="translate(-4996.301 -3970.259)" fill="#fff"/>
    <path id="path2787" d="M104.855-149.533,19.092-208.167H235.68v58.634Z" transform="translate(-4893.11 -3372.123)" fill="#fff"/>
    <path id="path2789" d="M365.432-149.533l85.763-58.634H234.606v58.634Z" transform="translate(-4893.11 -3372.123)" fill="#fff"/>
    <path id="path2851" d="M123.416,647.113c.966-.832,46.62-41.724,101.455-90.871l99.7-89.357,63-.03,63-.03-14.54,13.211c-8,7.266-53.033,48.171-100.08,90.9l-85.54,77.69H121.661Z" transform="translate(-4995.678 -4228.918)" fill="url(#linear-gradient)"/>
    <path id="path849" d="M1464.15,599.1l-50.668,43.851,88.476,140.358,79.953,56.178H1315.4l73.445-49.31-9.607-16.554H1257.449L1248,790.175l63.839,49.31H1114.278l62.289-56.178,87.081-140.358L1214.064,599.1ZM1315.4,668.837,1278.057,734h77.164Z" transform="translate(-5563.361 -4361.21)" fill="#fff"/>
    <path id="path851" d="M1753.6,599.1l131.706,129.791V655.1l-77.784-56h216.772l-77.629,56V839.485H1837.271L1704.016,702.825v80.481l77.784,56.178H1565.021l77.629-56.178V655.1l-77.629-56Z" transform="translate(-5563.361 -4361.21)" fill="#fff"/>
    <path id="path853" d="M2401.423,598.921V705.114q-77.009-69.563-166.415-69.563-39.976,0-62.289,23.6-22.312,23.422-22.312,65.336,0,82.418,88.01,82.418,40.286,0,65.233-19.02V774.853l-86.306-56.883H2483.08l-77.164,56.883v76.783l-46.794-25.359a376.943,376.943,0,0,1-136.044,25.183q-84.6,0-141.932-35.926-57.176-35.926-57.176-89.11,0-55.474,62.444-95.45Q2149.012,591,2235.782,591q74.22,0,127.212,31.7Z" transform="translate(-5563.361 -4361.21)" fill="#fff"/>
  </g>
</svg>
