<svg xmlns="http://www.w3.org/2000/svg" xmlns:xlink="http://www.w3.org/1999/xlink" width="996.583" height="557.718" viewBox="0 0 996.583 557.718">
  <defs>
    <linearGradient id="linear-gradient" x1="-0.326" y1="2.725" x2="1.027" y2="2.515" gradientUnits="objectBoundingBox">
      <stop offset="0" stop-color="#050000"/>
      <stop offset="1" stop-color="#fff" stop-opacity="0"/>
    </linearGradient>
  </defs>
  <g id="Group_3" data-name="Group 3" transform="translate(6894.735 2025.025)">
    <path id="path1839" d="M232.93,724.125c1.8-1.554,86.795-77.893,188.883-169.642L607.427,387.666l117.292-.056,117.292-.056-27.069,24.663c-14.888,13.565-98.734,89.929-186.324,169.7L469.362,726.95h-239.7Z" transform="translate(-6932.279 -2303.418)" fill="#ececec"/>
    <path id="path2764" d="M195.214,278.393,35.545,387.554H438.777V278.393Z" transform="translate(-6930.279 -2303.418)" fill="#fff"/>
    <path id="path2766" d="M680.341,278.393,840.01,387.554H436.777V278.393Z" transform="translate(-6930.279 -2303.418)" fill="#fff"/>
    <path id="path2787" d="M195.214-278.393,35.545-387.554H438.777v109.161Z" transform="translate(-6738.163 -1188.914)" fill="#fff"/>
    <path id="path2789" d="M680.341-278.393,840.01-387.554H436.777v109.161Z" transform="translate(-6738.163 -1188.914)" fill="#fff"/>
    <path id="path2674-4" d="M843.831,390.491c-1.813,1.553-87.52,77.867-190.461,169.586L466.205,726.838l-118.272.056-118.272.056,27.3-24.655c15.013-13.56,99.559-89.9,187.882-169.642L605.423,387.666h241.7Z" transform="translate(-6932.279 -2303.418)" fill="url(#linear-gradient)"/>
    <path id="path2851" d="M232.957,724.125c1.813-1.553,87.52-77.867,190.461-169.586L610.583,387.778l118.272-.056,118.272-.056-27.3,24.655c-15.013,13.561-99.559,89.9-187.881,169.642L471.365,726.95h-241.7Z" transform="translate(-6932.279 -2303.418)" fill="url(#linear-gradient)"/>
  </g>
</svg>
